<svg width="12" height="13" viewBox="0 0 12 13" fill="none" xmlns="http://www.w3.org/2000/svg">
<path d="M10.0833 11.083V4.66634H1.91667V11.083H10.0833ZM8.33333 0.583008H9.5V1.74967H10.0833C10.3928 1.74967 10.6895 1.87259 10.9083 2.09138C11.1271 2.31018 11.25 2.60692 11.25 2.91634V11.083C11.25 11.3924 11.1271 11.6892 10.9083 11.908C10.6895 12.1268 10.3928 12.2497 10.0833 12.2497H1.91667C1.60725 12.2497 1.3105 12.1268 1.09171 11.908C0.872916 11.6892 0.75 11.3924 0.75 11.083V2.91634C0.75 2.26884 1.26917 1.74967 1.91667 1.74967H2.5V0.583008H3.66667V1.74967H8.33333V0.583008ZM3.08333 5.83301H4.25V6.99967H3.08333V5.83301ZM7.75 5.83301H8.91667V6.99967H7.75V5.83301ZM5.41667 8.16634H6.58333V9.33301H5.41667V8.16634ZM7.75 8.16634H8.91667V9.33301H7.75V8.16634Z" fill="#43474E"/>
</svg>
