<svg width="20" height="20" viewBox="0 0 20 20" fill="none" xmlns="http://www.w3.org/2000/svg">
<path d="M14.6368 19.9996H5.08906C4.46944 20.0101 3.86637 19.8005 3.38809 19.4086C3.11005 19.1706 2.88746 18.8753 2.73581 18.5432C2.58416 18.211 2.5071 17.85 2.50997 17.4852V4.59378H1.38414C1.14692 4.58574 0.922114 4.48636 0.75716 4.3166C0.592205 4.14685 0.5 3.92 0.5 3.68392C0.5 3.44784 0.592205 3.22099 0.75716 3.05124C0.922114 2.88148 1.14692 2.7821 1.38414 2.77406H1.41072C2.09323 2.75608 2.78106 2.77406 3.46357 2.77406H5.76625V2.50548C5.76625 2.3638 5.76625 2.21894 5.76625 2.08254C5.77225 1.57741 5.96095 1.09132 6.2978 0.713246C6.62317 0.427509 7.00958 0.219063 7.42783 0.103662C7.84609 -0.0117403 8.28524 -0.0310798 8.71211 0.0471046H11.2912C11.5038 0.0471046 11.726 0.0471046 11.9429 0.0471046C12.3439 0.0511895 12.7349 0.172443 13.0672 0.395784C13.3995 0.619126 13.6584 0.934699 13.8118 1.30326C13.9573 1.74613 14.0112 2.21371 13.9702 2.67783V2.773H18.262C18.5017 2.77898 18.7297 2.877 18.8984 3.04651C19.067 3.21603 19.1632 3.44388 19.1667 3.68233C19.1659 3.92171 19.0706 4.15122 18.9014 4.32147C18.7322 4.49172 18.5026 4.58913 18.262 4.59273H18.2322C17.8654 4.60224 17.4965 4.60224 17.1276 4.59907V17.021C17.1276 17.1849 17.1276 17.353 17.1276 17.5169C17.1216 18.1606 16.8669 18.7772 16.4162 19.2392C15.9656 19.7012 15.3536 19.9731 14.7069 19.9986H14.6336L14.6368 19.9996ZM4.96255 18.1936H4.93384C4.94471 18.1959 4.95593 18.1959 4.9668 18.1936H4.96255ZM4.90726 18.181H4.9753C6.6178 18.2084 8.26029 18.181 9.90172 18.181H14.7431C14.7941 18.1683 14.8494 18.1524 14.8962 18.1418L14.9461 18.1165L15.045 18.0572H15.0503C15.0812 18.0298 15.1088 18.0023 15.1364 17.9758C15.1641 17.9494 15.1736 17.9356 15.1917 17.9145C15.2151 17.8764 15.2385 17.8352 15.2406 17.831C15.2428 17.8267 15.2619 17.7897 15.2736 17.7686C15.2874 17.7178 15.3023 17.6502 15.3087 17.6174C15.3087 17.611 15.3087 17.6036 15.3087 17.5952V4.63291H4.32362C4.33425 5.88483 4.31086 7.13993 4.31086 8.38868V17.5212C4.3113 17.5461 4.31451 17.5709 4.32043 17.5952L4.30555 17.5381C4.31618 17.5698 4.31724 17.6142 4.32468 17.6438C4.32468 17.6512 4.34063 17.7041 4.35445 17.7495L4.36189 17.7622C4.38422 17.8035 4.41186 17.8437 4.43418 17.8891L4.45332 17.9251C4.49159 17.9642 4.54687 18.016 4.58302 18.0488L4.62873 18.0763C4.6585 18.0953 4.68933 18.1112 4.71697 18.126C4.76381 18.1366 4.80996 18.15 4.85517 18.1662C4.86783 18.1671 4.88032 18.1696 4.89238 18.1736L4.90726 18.181ZM15.0673 18.0424C15.0875 18.0298 15.1014 18.0192 15.1003 18.016L15.0673 18.0424ZM15.1492 17.9716C15.1492 17.9716 15.1673 17.9515 15.1843 17.924C15.1779 17.9388 15.1651 17.9547 15.1492 17.9716ZM4.40548 17.8754C4.40548 17.8807 4.4193 17.9018 4.44482 17.9282L4.43844 17.9166C4.42568 17.8955 4.41186 17.8743 4.40654 17.8743L4.40548 17.8754ZM15.2555 17.8214C15.2555 17.8214 15.2672 17.8024 15.2757 17.7728C15.2715 17.7887 15.264 17.8045 15.2555 17.8214ZM4.37146 17.8214C4.37146 17.8214 4.36296 17.7887 4.34807 17.7601C4.35341 17.7819 4.3624 17.8026 4.37465 17.8214H4.37146ZM7.67133 2.773H12.1598V2.08254C12.1598 2.07408 12.1598 2.06668 12.1598 2.06033V2.0561C12.1593 2.04906 12.1593 2.042 12.1598 2.03496C12.1568 2.02795 12.1533 2.02123 12.1491 2.01487C12.1491 2.01487 12.1491 2.02121 12.1491 2.02438V2.01487V2.00429C12.1438 1.99372 12.1353 1.97786 12.1268 1.96094H12.1215C12.1045 1.94719 12.0651 1.92076 12.0449 1.90701L12.0279 1.89855H12.0067H12.0141H12.0077H11.9812L11.9599 1.87318C11.8972 1.8552 11.9004 1.86578 11.9248 1.87318H11.9322C11.8876 1.87318 11.8398 1.87318 11.7919 1.87318H7.76914H7.75851L7.70748 1.89327L7.72342 1.88587L7.73406 1.88058C7.71067 1.88058 7.7011 1.88798 7.74043 1.88058C7.77977 1.87318 7.76489 1.85943 7.68409 1.90384H7.66921C7.64927 1.92662 7.62759 1.94783 7.60436 1.96728L7.58416 2.00218C7.5843 2.00464 7.5843 2.00711 7.58416 2.00958V2.01487C7.58043 2.03407 7.57794 2.0535 7.57672 2.07302V2.76877L7.67133 2.773ZM12.1438 1.99583L12.1374 1.97574L12.1268 1.962C12.1353 1.97997 12.1406 1.99055 12.1449 1.99689L12.1438 1.99583ZM7.61074 1.95565L7.63519 1.93028L7.64688 1.9197H7.64157C7.64157 1.9123 7.64901 1.90701 7.64157 1.90596C7.63412 1.9049 7.632 1.91442 7.62243 1.92922C7.61606 1.93287 7.61032 1.93751 7.60542 1.94296C7.60542 1.94296 7.60542 1.94296 7.61605 1.94296L7.61074 1.95565ZM4.3215 17.5994C4.32733 17.6145 4.33195 17.6301 4.33532 17.6459C4.32914 17.6309 4.32451 17.6153 4.3215 17.5994ZM10.9127 14.8925V7.92026C10.9042 7.79705 10.9213 7.67342 10.9629 7.55704C11.0044 7.44066 11.0696 7.33402 11.1543 7.24375C11.2391 7.15348 11.3416 7.08151 11.4555 7.0323C11.5694 6.98309 11.6922 6.95769 11.8164 6.95769C11.9405 6.95769 12.0634 6.98309 12.1773 7.0323C12.2912 7.08151 12.3937 7.15348 12.4784 7.24375C12.5632 7.33402 12.6283 7.44066 12.6699 7.55704C12.7115 7.67342 12.7285 7.79705 12.72 7.92026V14.8883C12.7165 15.1268 12.6204 15.3546 12.4517 15.5241C12.2831 15.6936 12.055 15.7917 11.8153 15.7977H11.7802C11.5471 15.783 11.3283 15.681 11.1677 15.5123C11.0072 15.3436 10.9168 15.1206 10.9149 14.8883L10.9127 14.8925ZM6.91334 14.8925V7.92026C6.9074 7.79857 6.92638 7.67694 6.96911 7.56276C7.01184 7.44857 7.07744 7.34421 7.16194 7.25599C7.24643 7.16778 7.34806 7.09755 7.46066 7.04956C7.57326 7.00158 7.69448 6.97683 7.81698 6.97683C7.93948 6.97683 8.0607 7.00158 8.1733 7.04956C8.28589 7.09755 8.38752 7.16778 8.47202 7.25599C8.55651 7.34421 8.62211 7.44857 8.66485 7.56276C8.70758 7.67694 8.72655 7.79857 8.72062 7.92026V14.8883C8.71738 15.1268 8.62132 15.3549 8.45262 15.5244C8.28391 15.694 8.0557 15.7919 7.81591 15.7977H7.78615C7.55229 15.784 7.33239 15.6825 7.17094 15.5136C7.00949 15.3448 6.91855 15.1213 6.91653 14.8883L6.91334 14.8925ZM12.1534 2.02332L12.1608 2.05293C12.155 2.04421 12.1524 2.03375 12.1534 2.02332ZM7.62562 1.93239L7.6405 1.92287L7.63519 1.93028L7.61818 1.94402L7.62562 1.93239ZM7.68515 1.90067L7.70748 1.89327C7.69475 1.89954 7.68112 1.90382 7.66708 1.90596L7.68515 1.90067ZM11.9376 1.87952H11.9843L12.0099 1.88692C12.0028 1.88807 11.9956 1.88807 11.9886 1.88692C11.9698 1.8875 11.9511 1.88464 11.9333 1.87846L11.9376 1.87952Z" fill="#2F2F2F"/>
</svg>
