<svg width="16" height="18" viewBox="0 0 16 18" fill="none" xmlns="http://www.w3.org/2000/svg">
<path d="M13.8333 16.333H14.3333V15.833V6.66634V6.16634H13.8333H2.16667H1.66667V6.66634V15.833V16.333H2.16667H13.8333ZM3.5 2.49967V1.33301H4.16667V2.49967V2.99967H4.66667H11.3333H11.8333V2.49967V1.33301H12.5V2.49967V2.99967H13H13.8333C14.1428 2.99967 14.4395 3.12259 14.6583 3.34138L15.0118 2.98783L14.6583 3.34138C14.8771 3.56018 15 3.85692 15 4.16634V15.833C15 16.1424 14.8771 16.4392 14.6583 16.658C14.4395 16.8768 14.1428 16.9997 13.8333 16.9997H2.16667C1.85725 16.9997 1.5605 16.8768 1.34171 16.658C1.12292 16.4392 1 16.1424 1 15.833V4.16634C1 3.51748 1.51781 2.99967 2.16667 2.99967H3H3.5V2.49967ZM5 8.83301V9.49967H4.33333V8.83301H5ZM11.6667 8.83301V9.49967H11V8.83301H11.6667ZM7.66667 12.1663H8.33333V12.833H7.66667V12.1663ZM11.6667 12.1663V12.833H11V12.1663H11.6667Z" fill="#2F2F2F" stroke="#1A1C1E"/>
</svg>
