<svg width="20" height="20" viewBox="0 0 20 20" fill="none" xmlns="http://www.w3.org/2000/svg">
<path d="M17.6078 16.813L17.6077 16.8131L17.6144 16.8241C17.6232 16.8383 17.6289 16.8541 17.6314 16.8706C17.634 16.8871 17.6331 16.904 17.629 16.9202L17.629 16.9202C17.6249 16.9363 17.6176 16.9515 17.6076 16.9648C17.5975 16.9782 17.5848 16.9893 17.5704 16.9977C17.5559 17.006 17.54 17.0114 17.5234 17.0135C17.5068 17.0155 17.49 17.0143 17.474 17.0097C17.4579 17.0052 17.4429 16.9975 17.4299 16.9871L17.1178 17.3777L17.4298 16.9871C17.4168 16.9767 17.406 16.9637 17.398 16.9491L17.3982 16.949L17.3914 16.9373C15.8322 14.2426 13.0677 12.6252 10 12.6252C6.93235 12.6252 4.16786 14.2426 2.60866 16.9373L2.6085 16.9372L2.60204 16.9491C2.59407 16.9637 2.58325 16.9767 2.57021 16.9871C2.55716 16.9975 2.54217 17.0052 2.5261 17.0097C2.51004 17.0143 2.49323 17.0155 2.47666 17.0135C2.4601 17.0114 2.44412 17.006 2.42967 16.9977C2.41521 16.9893 2.40258 16.9782 2.39251 16.9648C2.38243 16.9515 2.37513 16.9363 2.37103 16.9202C2.36692 16.904 2.3661 16.8871 2.36861 16.8706C2.37112 16.8541 2.3769 16.8383 2.38563 16.8241L2.38577 16.8242L2.39226 16.813C3.52154 14.8599 5.25723 13.4663 7.27783 12.8067L8.32464 12.4651L7.37845 11.9018C6.41407 11.3277 5.66481 10.4529 5.24573 9.41175C4.82665 8.3706 4.76092 7.22067 5.05863 6.13855C5.35635 5.05643 6.00105 4.10196 6.89373 3.42171C7.78641 2.74146 8.8777 2.37305 10 2.37305C11.1224 2.37305 12.2137 2.74146 13.1063 3.42171C13.999 4.10196 14.6437 5.05643 14.9414 6.13855C15.2391 7.22067 15.1734 8.3706 14.7543 9.41175C14.3352 10.4529 13.586 11.3277 12.6216 11.9018L11.6758 12.4648L12.7221 12.8067C14.7428 13.467 16.4786 14.8607 17.6078 16.813ZM5.12503 7.50017L5.12503 7.50071C5.12641 8.79307 5.64041 10.0321 6.55425 10.9459C7.46809 11.8598 8.70713 12.3738 9.99949 12.3752H10C10.9642 12.3752 11.9067 12.0893 12.7084 11.5536C13.5101 11.0179 14.135 10.2565 14.5039 9.36575C14.8729 8.47496 14.9695 7.49476 14.7814 6.54911C14.5933 5.60345 14.129 4.73481 13.4472 4.05303C12.7654 3.37125 11.8968 2.90695 10.9511 2.71884C10.0054 2.53074 9.02524 2.62728 8.13445 2.99626C7.24366 3.36524 6.48229 3.99008 5.94661 4.79177C5.41094 5.59346 5.12503 6.53599 5.12503 7.50017Z" fill="#2F2F2F" stroke="#1A1C1E"/>
</svg>
